<mxfile host="Electron" agent="Mozilla/5.0 (Windows NT 10.0; Win64; x64) AppleWebKit/537.36 (KHTML, like Gecko) draw.io/25.0.2 Chrome/128.0.6613.186 Electron/32.2.5 Safari/537.36" version="25.0.2">
  <diagram name="PÃ¡gina-1" id="XoVfdVzmXT0FCT3dWPdM">
    <mxGraphModel dx="2062" dy="731" grid="1" gridSize="10" guides="1" tooltips="1" connect="1" arrows="1" fold="1" page="1" pageScale="1" pageWidth="827" pageHeight="1169" background="none" math="0" shadow="1">
      <root>
        <mxCell id="0" />
        <mxCell id="1" parent="0" />
        <mxCell id="gqJFN9A-wY2o9Y6DUlTp-1" value="INICIO - mostrar_productos_por_proveedor&lt;div&gt;&lt;br&gt;&lt;/div&gt;" style="ellipse;whiteSpace=wrap;rounded=1;fillColor=#dae8fc;strokeColor=#6c8ebf;textShadow=1;strokeWidth=1;shadow=1;html=1;horizontal=1;fontSize=11;fontStyle=0;spacing=2;" parent="1" vertex="1">
          <mxGeometry x="-484.4" y="10" width="194.4" height="80" as="geometry" />
        </mxCell>
        <mxCell id="cXWjLIOsoKRXoAWc8K2a-2" value="n_productos = 0" style="rhombus;whiteSpace=wrap;rounded=1;fillColor=#f8cecc;strokeColor=#b85450;textShadow=1;strokeWidth=1;shadow=1;html=1;horizontal=1;fontSize=11;fontStyle=0;spacing=2;" parent="1" vertex="1">
          <mxGeometry x="-455.8" y="110" width="140" height="100" as="geometry" />
        </mxCell>
        <mxCell id="cXWjLIOsoKRXoAWc8K2a-3" value="" style="edgeStyle=orthogonalEdgeStyle;rounded=1;orthogonalLoop=1;jettySize=auto;entryX=0.5;entryY=0.036;entryDx=0;entryDy=0;entryPerimeter=0;fillColor=#dae8fc;strokeColor=#6c8ebf;textShadow=1;strokeWidth=1;shadow=1;html=1;horizontal=1;fontSize=11;fontStyle=0;spacing=2;exitX=0.5;exitY=1;exitDx=0;exitDy=0;" parent="1" target="cXWjLIOsoKRXoAWc8K2a-2" edge="1">
          <mxGeometry relative="1" as="geometry">
            <mxPoint x="-385.8" y="90" as="sourcePoint" />
          </mxGeometry>
        </mxCell>
        <mxCell id="cXWjLIOsoKRXoAWc8K2a-4" value="" style="edgeStyle=orthogonalEdgeStyle;rounded=1;orthogonalLoop=1;jettySize=auto;fillColor=#dae8fc;strokeColor=#6c8ebf;textShadow=1;strokeWidth=1;shadow=1;html=1;horizontal=1;fontSize=11;fontStyle=0;spacing=2;exitX=1;exitY=0.5;exitDx=0;exitDy=0;" parent="1" edge="1">
          <mxGeometry x="0.3875" y="110" relative="1" as="geometry">
            <mxPoint x="-148.60000000000002" y="220" as="targetPoint" />
            <mxPoint x="-318.8" y="160" as="sourcePoint" />
            <Array as="points">
              <mxPoint x="-148.60000000000002" y="160" />
            </Array>
            <mxPoint as="offset" />
          </mxGeometry>
        </mxCell>
        <mxCell id="JG8EjwA68Vt5j2I3WxTG-10" value="NO" style="edgeLabel;html=1;align=center;verticalAlign=middle;resizable=0;points=[];" parent="cXWjLIOsoKRXoAWc8K2a-4" vertex="1" connectable="0">
          <mxGeometry x="-0.1035" y="-2" relative="1" as="geometry">
            <mxPoint as="offset" />
          </mxGeometry>
        </mxCell>
        <mxCell id="cXWjLIOsoKRXoAWc8K2a-5" value="" style="edgeStyle=orthogonalEdgeStyle;rounded=1;orthogonalLoop=1;jettySize=auto;fillColor=#dae8fc;strokeColor=#6c8ebf;textShadow=1;strokeWidth=1;shadow=1;html=1;horizontal=1;fontSize=11;fontStyle=0;spacing=2;exitX=0.021;exitY=0.505;exitDx=0;exitDy=0;exitPerimeter=0;" parent="1" edge="1">
          <mxGeometry x="0.3875" y="110" relative="1" as="geometry">
            <mxPoint x="-628.6" y="220" as="targetPoint" />
            <mxPoint x="-451.86000000000007" y="160.5" as="sourcePoint" />
            <mxPoint as="offset" />
            <Array as="points">
              <mxPoint x="-628.6" y="160" />
              <mxPoint x="-628.6" y="220" />
            </Array>
          </mxGeometry>
        </mxCell>
        <mxCell id="JG8EjwA68Vt5j2I3WxTG-3" value="SI" style="edgeLabel;html=1;align=center;verticalAlign=middle;resizable=0;points=[];" parent="cXWjLIOsoKRXoAWc8K2a-5" vertex="1" connectable="0">
          <mxGeometry x="-0.2624" relative="1" as="geometry">
            <mxPoint as="offset" />
          </mxGeometry>
        </mxCell>
        <mxCell id="EFgC_INHWZhmzaaOTWJH-2" value="" style="edgeStyle=orthogonalEdgeStyle;rounded=0;orthogonalLoop=1;jettySize=auto;html=1;" parent="1" source="cXWjLIOsoKRXoAWc8K2a-6" target="JG8EjwA68Vt5j2I3WxTG-8" edge="1">
          <mxGeometry relative="1" as="geometry" />
        </mxCell>
        <mxCell id="cXWjLIOsoKRXoAWc8K2a-6" value="Escribir(&quot;*** Mostrar productos por proveedor ***&quot;);" style="rounded=1;whiteSpace=wrap;fillColor=#fff2cc;strokeColor=#d6b656;textShadow=1;strokeWidth=1;shadow=1;html=1;horizontal=1;fontSize=11;fontStyle=0;spacing=2;" parent="1" vertex="1">
          <mxGeometry x="-310" y="220" width="322.8" height="40" as="geometry" />
        </mxCell>
        <mxCell id="cXWjLIOsoKRXoAWc8K2a-8" value="proveedor_encontrado = FALSO;" style="rounded=1;whiteSpace=wrap;fillColor=#fff2cc;strokeColor=#d6b656;textShadow=1;strokeWidth=1;shadow=1;html=1;horizontal=1;fontSize=11;fontStyle=0;spacing=2;" parent="1" vertex="1">
          <mxGeometry x="-227.20000000000005" y="290" width="157.2" height="40" as="geometry" />
        </mxCell>
        <mxCell id="cXWjLIOsoKRXoAWc8K2a-10" value="" style="edgeStyle=orthogonalEdgeStyle;rounded=1;orthogonalLoop=1;jettySize=auto;fillColor=#dae8fc;strokeColor=#6c8ebf;textShadow=1;strokeWidth=1;shadow=1;html=1;horizontal=1;fontSize=11;fontStyle=0;spacing=2;exitX=0.5;exitY=1;exitDx=0;exitDy=0;" parent="1" edge="1">
          <mxGeometry relative="1" as="geometry">
            <mxPoint x="-148.80999999999995" y="330" as="sourcePoint" />
            <mxPoint x="-148.5999999999999" y="360" as="targetPoint" />
          </mxGeometry>
        </mxCell>
        <mxCell id="cXWjLIOsoKRXoAWc8K2a-11" value="" style="edgeStyle=orthogonalEdgeStyle;rounded=1;orthogonalLoop=1;jettySize=auto;fillColor=#dae8fc;strokeColor=#6c8ebf;textShadow=1;strokeWidth=1;shadow=1;html=1;horizontal=1;fontSize=11;fontStyle=0;spacing=2;exitX=0.5;exitY=1;exitDx=0;exitDy=0;" parent="1" edge="1">
          <mxGeometry relative="1" as="geometry">
            <mxPoint x="-148.87999999999988" y="260" as="sourcePoint" />
            <mxPoint x="-148.67000000000007" y="290" as="targetPoint" />
          </mxGeometry>
        </mxCell>
        <mxCell id="JG8EjwA68Vt5j2I3WxTG-8" value="Escribir(&quot;Ingrese el nombre del proveedor: &quot;);" style="rounded=1;whiteSpace=wrap;fillColor=#fff2cc;strokeColor=#d6b656;textShadow=1;strokeWidth=1;shadow=1;html=1;horizontal=1;fontSize=11;fontStyle=0;spacing=2;" parent="1" vertex="1">
          <mxGeometry x="-310" y="360" width="322.8" height="40" as="geometry" />
        </mxCell>
        <mxCell id="EFgC_INHWZhmzaaOTWJH-56" style="edgeStyle=orthogonalEdgeStyle;rounded=0;orthogonalLoop=1;jettySize=auto;html=1;fillColor=#dae8fc;strokeColor=#6c8ebf;" parent="1" edge="1">
          <mxGeometry relative="1" as="geometry">
            <mxPoint x="-386" y="1130" as="targetPoint" />
            <mxPoint x="-623.0000000000002" y="260" as="sourcePoint" />
            <Array as="points">
              <mxPoint x="-630" y="260" />
              <mxPoint x="-630" y="1130" />
            </Array>
          </mxGeometry>
        </mxCell>
        <mxCell id="JG8EjwA68Vt5j2I3WxTG-9" value="Escribir(&quot;El inventario esta vacio.&quot;);" style="rounded=1;whiteSpace=wrap;fillColor=#fff2cc;strokeColor=#d6b656;textShadow=1;strokeWidth=1;shadow=1;html=1;horizontal=1;fontSize=11;fontStyle=0;spacing=2;" parent="1" vertex="1">
          <mxGeometry x="-790" y="220" width="334.4" height="40" as="geometry" />
        </mxCell>
        <mxCell id="EFgC_INHWZhmzaaOTWJH-4" value="" style="edgeStyle=orthogonalEdgeStyle;rounded=1;orthogonalLoop=1;jettySize=auto;fillColor=#dae8fc;strokeColor=#6c8ebf;textShadow=1;strokeWidth=1;shadow=1;html=1;horizontal=1;fontSize=11;fontStyle=0;spacing=2;exitX=0.5;exitY=1;exitDx=0;exitDy=0;" parent="1" edge="1">
          <mxGeometry relative="1" as="geometry">
            <mxPoint x="-384.59999999999997" y="1130" as="sourcePoint" />
            <mxPoint x="-384.38999999999993" y="1160" as="targetPoint" />
          </mxGeometry>
        </mxCell>
        <mxCell id="EFgC_INHWZhmzaaOTWJH-8" value="Leer(proveedor);" style="rounded=1;whiteSpace=wrap;fillColor=#fff2cc;strokeColor=#d6b656;textShadow=1;strokeWidth=1;shadow=1;html=1;horizontal=1;fontSize=11;fontStyle=0;spacing=2;" parent="1" vertex="1">
          <mxGeometry x="-309.99999999999994" y="430" width="320" height="40" as="geometry" />
        </mxCell>
        <mxCell id="EFgC_INHWZhmzaaOTWJH-10" value="" style="edgeStyle=orthogonalEdgeStyle;rounded=1;orthogonalLoop=1;jettySize=auto;fillColor=#dae8fc;strokeColor=#6c8ebf;textShadow=1;strokeWidth=1;shadow=1;html=1;horizontal=1;fontSize=11;fontStyle=0;spacing=2;exitX=0.5;exitY=1;exitDx=0;exitDy=0;" parent="1" edge="1">
          <mxGeometry relative="1" as="geometry">
            <mxPoint x="-150.27999999999986" y="400" as="sourcePoint" />
            <mxPoint x="-150.07000000000005" y="430" as="targetPoint" />
          </mxGeometry>
        </mxCell>
        <mxCell id="EFgC_INHWZhmzaaOTWJH-13" value="" style="edgeStyle=orthogonalEdgeStyle;rounded=1;orthogonalLoop=1;jettySize=auto;fillColor=#dae8fc;strokeColor=#6c8ebf;textShadow=1;strokeWidth=1;shadow=1;html=1;horizontal=1;fontSize=11;fontStyle=0;spacing=2;exitX=0.5;exitY=1;exitDx=0;exitDy=0;" parent="1" edge="1">
          <mxGeometry relative="1" as="geometry">
            <mxPoint x="-150.8599999999999" y="470" as="sourcePoint" />
            <mxPoint x="-150.64999999999986" y="500" as="targetPoint" />
          </mxGeometry>
        </mxCell>
        <mxCell id="EFgC_INHWZhmzaaOTWJH-40" style="edgeStyle=orthogonalEdgeStyle;rounded=0;orthogonalLoop=1;jettySize=auto;html=1;fillColor=#dae8fc;strokeColor=#6c8ebf;exitX=0.97;exitY=0.515;exitDx=0;exitDy=0;exitPerimeter=0;entryX=1;entryY=0.5;entryDx=0;entryDy=0;" parent="1" source="vRHzV3vm3x7Me2UrooUp-2" target="EFgC_INHWZhmzaaOTWJH-20" edge="1">
          <mxGeometry relative="1" as="geometry">
            <mxPoint x="-151" y="1169" as="targetPoint" />
            <Array as="points">
              <mxPoint x="-85" y="678" />
              <mxPoint x="49" y="678" />
              <mxPoint x="49" y="850" />
              <mxPoint x="12" y="850" />
            </Array>
            <mxPoint x="-63.87999999999988" y="678.4000000000001" as="sourcePoint" />
          </mxGeometry>
        </mxCell>
        <mxCell id="EFgC_INHWZhmzaaOTWJH-42" value="NO" style="edgeLabel;html=1;align=center;verticalAlign=middle;resizable=0;points=[];" parent="EFgC_INHWZhmzaaOTWJH-40" vertex="1" connectable="0">
          <mxGeometry x="-0.8565" y="1" relative="1" as="geometry">
            <mxPoint as="offset" />
          </mxGeometry>
        </mxCell>
        <mxCell id="EFgC_INHWZhmzaaOTWJH-16" value="" style="edgeStyle=orthogonalEdgeStyle;rounded=1;orthogonalLoop=1;jettySize=auto;fillColor=#dae8fc;strokeColor=#6c8ebf;textShadow=1;strokeWidth=1;shadow=1;html=1;horizontal=1;fontSize=11;fontStyle=0;spacing=2;exitX=0.5;exitY=1;exitDx=0;exitDy=0;" parent="1" edge="1">
          <mxGeometry relative="1" as="geometry">
            <mxPoint x="-149.89999999999986" y="599" as="sourcePoint" />
            <mxPoint x="-149.68999999999983" y="629" as="targetPoint" />
          </mxGeometry>
        </mxCell>
        <mxCell id="EFgC_INHWZhmzaaOTWJH-44" value="SI" style="edgeLabel;html=1;align=center;verticalAlign=middle;resizable=0;points=[];" parent="EFgC_INHWZhmzaaOTWJH-16" vertex="1" connectable="0">
          <mxGeometry x="-0.0319" y="-1" relative="1" as="geometry">
            <mxPoint y="-3" as="offset" />
          </mxGeometry>
        </mxCell>
        <mxCell id="EFgC_INHWZhmzaaOTWJH-17" value="proveedor_encontrado = VERDADERO;" style="rounded=1;whiteSpace=wrap;fillColor=#fff2cc;strokeColor=#d6b656;textShadow=1;strokeWidth=1;shadow=1;html=1;horizontal=1;fontSize=11;fontStyle=0;spacing=2;" parent="1" vertex="1">
          <mxGeometry x="-228.20000000000005" y="759" width="157.2" height="40" as="geometry" />
        </mxCell>
        <mxCell id="EFgC_INHWZhmzaaOTWJH-18" value="" style="edgeStyle=orthogonalEdgeStyle;rounded=1;orthogonalLoop=1;jettySize=auto;fillColor=#dae8fc;strokeColor=#6c8ebf;textShadow=1;strokeWidth=1;shadow=1;html=1;horizontal=1;fontSize=11;fontStyle=0;spacing=2;exitX=0.5;exitY=1;exitDx=0;exitDy=0;" parent="1" edge="1">
          <mxGeometry relative="1" as="geometry">
            <mxPoint x="-149.87999999999988" y="729" as="sourcePoint" />
            <mxPoint x="-149.67000000000007" y="759" as="targetPoint" />
          </mxGeometry>
        </mxCell>
        <mxCell id="EFgC_INHWZhmzaaOTWJH-41" value="SI" style="edgeLabel;html=1;align=center;verticalAlign=middle;resizable=0;points=[];" parent="EFgC_INHWZhmzaaOTWJH-18" vertex="1" connectable="0">
          <mxGeometry x="-0.2438" y="-1" relative="1" as="geometry">
            <mxPoint as="offset" />
          </mxGeometry>
        </mxCell>
        <mxCell id="EFgC_INHWZhmzaaOTWJH-19" value="" style="edgeStyle=orthogonalEdgeStyle;rounded=1;orthogonalLoop=1;jettySize=auto;fillColor=#dae8fc;strokeColor=#6c8ebf;textShadow=1;strokeWidth=1;shadow=1;html=1;horizontal=1;fontSize=11;fontStyle=0;spacing=2;exitX=0.5;exitY=1;exitDx=0;exitDy=0;" parent="1" edge="1">
          <mxGeometry relative="1" as="geometry">
            <mxPoint x="-149.80999999999995" y="799" as="sourcePoint" />
            <mxPoint x="-149.5999999999999" y="829" as="targetPoint" />
          </mxGeometry>
        </mxCell>
        <mxCell id="EFgC_INHWZhmzaaOTWJH-20" value="mostrar_producto(i, galleta);" style="rounded=1;whiteSpace=wrap;fillColor=#fff2cc;strokeColor=#d6b656;textShadow=1;strokeWidth=1;shadow=1;html=1;horizontal=1;fontSize=11;fontStyle=0;spacing=2;" parent="1" vertex="1">
          <mxGeometry x="-311" y="829" width="322.8" height="40" as="geometry" />
        </mxCell>
        <mxCell id="EFgC_INHWZhmzaaOTWJH-38" value="" style="edgeStyle=orthogonalEdgeStyle;rounded=1;orthogonalLoop=1;jettySize=auto;fillColor=#dae8fc;strokeColor=#6c8ebf;textShadow=1;strokeWidth=1;shadow=1;html=1;horizontal=1;fontSize=11;fontStyle=0;spacing=2;exitX=0;exitY=0.5;exitDx=0;exitDy=0;" parent="1" source="EFgC_INHWZhmzaaOTWJH-20" edge="1">
          <mxGeometry relative="1" as="geometry">
            <mxPoint x="-150.91999999999985" y="1240" as="sourcePoint" />
            <mxPoint x="-152" y="490" as="targetPoint" />
            <Array as="points">
              <mxPoint x="-311" y="850" />
              <mxPoint x="-352" y="850" />
              <mxPoint x="-352" y="490" />
            </Array>
          </mxGeometry>
        </mxCell>
        <mxCell id="EFgC_INHWZhmzaaOTWJH-46" value="" style="edgeStyle=orthogonalEdgeStyle;rounded=1;orthogonalLoop=1;jettySize=auto;fillColor=#dae8fc;strokeColor=#6c8ebf;textShadow=1;strokeWidth=1;shadow=1;html=1;horizontal=1;fontSize=11;fontStyle=0;spacing=2;exitX=0.989;exitY=0.494;exitDx=0;exitDy=0;exitPerimeter=0;" parent="1" edge="1">
          <mxGeometry relative="1" as="geometry">
            <mxPoint x="-83.53999999999996" y="550.4" as="sourcePoint" />
            <mxPoint x="-150" y="920" as="targetPoint" />
            <Array as="points">
              <mxPoint x="-58" y="550" />
              <mxPoint x="86" y="551" />
              <mxPoint x="86" y="890" />
              <mxPoint x="-152" y="890" />
            </Array>
          </mxGeometry>
        </mxCell>
        <mxCell id="vRHzV3vm3x7Me2UrooUp-3" value="NO" style="edgeLabel;html=1;align=center;verticalAlign=middle;resizable=0;points=[];" parent="EFgC_INHWZhmzaaOTWJH-46" vertex="1" connectable="0">
          <mxGeometry x="-0.769" relative="1" as="geometry">
            <mxPoint as="offset" />
          </mxGeometry>
        </mxCell>
        <mxCell id="EFgC_INHWZhmzaaOTWJH-54" style="edgeStyle=orthogonalEdgeStyle;rounded=0;orthogonalLoop=1;jettySize=auto;html=1;fillColor=#dae8fc;strokeColor=#6c8ebf;exitX=0.969;exitY=0.502;exitDx=0;exitDy=0;exitPerimeter=0;" parent="1" source="EFgC_INHWZhmzaaOTWJH-48" edge="1">
          <mxGeometry relative="1" as="geometry">
            <mxPoint x="-384" y="1130" as="targetPoint" />
            <mxPoint x="-73.95999999999981" y="967.2" as="sourcePoint" />
            <Array as="points">
              <mxPoint x="45" y="970" />
              <mxPoint x="45" y="1130" />
            </Array>
          </mxGeometry>
        </mxCell>
        <mxCell id="vRHzV3vm3x7Me2UrooUp-4" value="NO" style="edgeLabel;html=1;align=center;verticalAlign=middle;resizable=0;points=[];" parent="EFgC_INHWZhmzaaOTWJH-54" vertex="1" connectable="0">
          <mxGeometry x="-0.837" y="-2" relative="1" as="geometry">
            <mxPoint as="offset" />
          </mxGeometry>
        </mxCell>
        <mxCell id="EFgC_INHWZhmzaaOTWJH-48" value="proveedor_encontrado = FALSO" style="rhombus;whiteSpace=wrap;rounded=1;fillColor=#f8cecc;strokeColor=#b85450;textShadow=1;strokeWidth=1;shadow=1;html=1;horizontal=1;fontSize=11;fontStyle=0;spacing=2;" parent="1" vertex="1">
          <mxGeometry x="-240.60000000000002" y="920" width="180" height="100" as="geometry" />
        </mxCell>
        <mxCell id="EFgC_INHWZhmzaaOTWJH-50" value="" style="edgeStyle=orthogonalEdgeStyle;rounded=1;orthogonalLoop=1;jettySize=auto;fillColor=#dae8fc;strokeColor=#6c8ebf;textShadow=1;strokeWidth=1;shadow=1;html=1;horizontal=1;fontSize=11;fontStyle=0;spacing=2;exitX=0.5;exitY=1;exitDx=0;exitDy=0;" parent="1" edge="1">
          <mxGeometry relative="1" as="geometry">
            <mxPoint x="-149.4799999999999" y="1020" as="sourcePoint" />
            <mxPoint x="-149.2700000000001" y="1050" as="targetPoint" />
          </mxGeometry>
        </mxCell>
        <mxCell id="EFgC_INHWZhmzaaOTWJH-51" value="SI" style="edgeLabel;html=1;align=center;verticalAlign=middle;resizable=0;points=[];" parent="EFgC_INHWZhmzaaOTWJH-50" vertex="1" connectable="0">
          <mxGeometry x="-0.2438" y="-1" relative="1" as="geometry">
            <mxPoint as="offset" />
          </mxGeometry>
        </mxCell>
        <mxCell id="vRHzV3vm3x7Me2UrooUp-5" style="edgeStyle=orthogonalEdgeStyle;rounded=0;orthogonalLoop=1;jettySize=auto;html=1;fillColor=#dae8fc;strokeColor=#6c8ebf;" parent="1" source="EFgC_INHWZhmzaaOTWJH-53" edge="1">
          <mxGeometry relative="1" as="geometry">
            <mxPoint x="-149.20000000000027" y="1130" as="targetPoint" />
          </mxGeometry>
        </mxCell>
        <mxCell id="EFgC_INHWZhmzaaOTWJH-53" value="Escribir(&quot;Proveedor no encontrado. Asegurese de que haya escrito correctamente el &lt;br/&gt;proveedor&quot;);" style="rounded=1;whiteSpace=wrap;fillColor=#fff2cc;strokeColor=#d6b656;textShadow=1;strokeWidth=1;shadow=1;html=1;horizontal=1;fontSize=11;fontStyle=0;spacing=2;" parent="1" vertex="1">
          <mxGeometry x="-310.6000000000001" y="1050" width="322.8" height="40" as="geometry" />
        </mxCell>
        <mxCell id="vRHzV3vm3x7Me2UrooUp-1" value="i &amp;lt; n_productos" style="rhombus;whiteSpace=wrap;rounded=1;fillColor=#f8cecc;strokeColor=#b85450;textShadow=1;strokeWidth=1;shadow=1;html=1;horizontal=1;fontSize=11;fontStyle=0;spacing=2;" parent="1" vertex="1">
          <mxGeometry x="-220" y="500" width="140" height="100" as="geometry" />
        </mxCell>
        <mxCell id="vRHzV3vm3x7Me2UrooUp-2" value="proveedor = galleta[i].proveedor" style="rhombus;whiteSpace=wrap;rounded=1;fillColor=#f8cecc;strokeColor=#b85450;textShadow=1;strokeWidth=1;shadow=1;html=1;horizontal=1;fontSize=11;fontStyle=0;spacing=2;" parent="1" vertex="1">
          <mxGeometry x="-221" y="629" width="140" height="100" as="geometry" />
        </mxCell>
        <mxCell id="csUw9472_6bs6FYa4G8Z-1" value="FIN - mostrar_productos_por_proveedor&lt;div&gt;&lt;br&gt;&lt;/div&gt;" style="ellipse;whiteSpace=wrap;rounded=1;fillColor=#dae8fc;strokeColor=#6c8ebf;textShadow=1;strokeWidth=1;shadow=1;html=1;horizontal=1;fontSize=11;fontStyle=0;spacing=2;" parent="1" vertex="1">
          <mxGeometry x="-483" y="1159" width="194.4" height="80" as="geometry" />
        </mxCell>
      </root>
    </mxGraphModel>
  </diagram>
</mxfile>
